<svg fill="none" xmlns="http://www.w3.org/2000/svg" viewBox="0 0 102 96"><rect x="3" y="14" width="96" height="82" rx="2" fill="#2563EB"/><rect y="24" width="102" height="12" rx="1" fill="#4479EE"/><path fill="#000" fill-opacity=".25" d="M3 36h96v2H3z"/><path fill="#E4E4E4" d="M71 24h16v13H71z"/><path fill="#C4C4C4" d="M71 36h16v2H71zM74 30h10v6H74z"/><path fill="#E4E4E4" d="M15 24h16v13H15z"/><path fill="#C4C4C4" d="M15 36h16v2H15zM18 30h10v6H18z"/><path fill="#B3B3B3" d="M33 7h8v7h-8zM61 7h8v7h-8z"/><path d="M48.354 71.688V60.812c0-2.937-.344-5.52-1.032-7.75-.687-2.25-1.666-4.135-2.937-5.656A12.492 12.492 0 0 0 39.697 44c-1.833-.77-3.895-1.156-6.187-1.156-2.27 0-4.323.385-6.156 1.156a12.278 12.278 0 0 0-4.625 3.406c-1.292 1.521-2.281 3.407-2.969 5.657-.688 2.229-1.031 4.812-1.031 7.75v10.874c0 2.938.344 5.532 1.031 7.782.708 2.229 1.708 4.094 3 5.594a12.086 12.086 0 0 0 4.656 3.437c1.834.77 3.886 1.156 6.156 1.156 2.292 0 4.355-.385 6.188-1.156a12.086 12.086 0 0 0 4.656-3.438c1.271-1.5 2.24-3.364 2.907-5.593.687-2.25 1.03-4.844 1.03-7.781Zm-20.875-3.75v-8.5c0-1.688.125-3.146.375-4.376.27-1.229.677-2.229 1.219-3 .5-.729 1.114-1.27 1.843-1.624.75-.376 1.615-.563 2.594-.563.875 0 1.656.146 2.344.438.708.27 1.302.697 1.781 1.28.625.73 1.094 1.71 1.406 2.938.334 1.209.521 2.667.563 4.375l-12.125 9.032ZM39.604 73c0 1.688-.136 3.156-.407 4.406-.25 1.23-.635 2.24-1.156 3.031-.5.75-1.125 1.313-1.875 1.688-.75.354-1.614.531-2.593.531-1.063 0-1.98-.208-2.75-.625-.771-.416-1.407-1.052-1.907-1.906-.437-.708-.781-1.594-1.031-2.656-.23-1.063-.365-2.281-.406-3.656l12.125-9V73Zm29.511-7.25-7.312-10.563h-9.344L63.77 71.781 52.021 89h9.407l7.718-11.063L76.927 89h9.375l-11.75-17.219 11.344-16.594h-9.344L69.115 65.75Z" fill="#F7F7F7"/><path d="M33 1a1 1 0 0 1 1-1h34a1 1 0 0 1 1 1v6H33V1Z" fill="#E4E4E4"/></svg>
